<?xml version="1.0" standalone="no"?>
<!DOCTYPE svg PUBLIC "-//W3C//DTD SVG 20010904//EN"
 "http://www.w3.org/TR/2001/REC-SVG-20010904/DTD/svg10.dtd">
<svg version="1.0" xmlns="http://www.w3.org/2000/svg"
 width="403.000000pt" height="619.000000pt" viewBox="0 0 403.000000 619.000000"
 preserveAspectRatio="xMidYMid meet">
<metadata>
Created by potrace 1.16, written by Peter Selinger 2001-2019
</metadata>
<g transform="translate(0.000000,619.000000) scale(0.100000,-0.100000)"
fill="#000000" stroke="none">
<path d="M2146 5998 c-49 -29 -79 -77 -78 -128 1 -31 -5 -44 -27 -63 -28 -23
-33 -24 -312 -31 -156 -3 -376 -15 -489 -26 -313 -30 -337 -28 -424 44 -83 67
-317 196 -357 196 -26 0 -42 -27 -41 -68 1 -20 9 -103 18 -184 26 -237 18
-355 -40 -573 -26 -99 -51 -187 -56 -195 -5 -11 -35 -17 -120 -22 -63 -4 -120
-10 -127 -12 -19 -8 -16 -63 4 -70 10 -4 68 -6 131 -5 62 1 115 -1 118 -4 3
-3 11 -28 19 -55 l13 -51 -32 -6 c-123 -25 -206 -48 -216 -60 -6 -8 -10 -24
-8 -37 4 -32 42 -34 156 -8 130 29 132 28 164 -28 l27 -49 -165 -63 c-139 -53
-165 -67 -170 -87 -7 -27 11 -53 36 -53 10 0 78 23 152 51 210 81 201 80 245
37 157 -149 331 -220 637 -258 91 -11 131 -39 142 -95 9 -52 -23 -197 -87
-389 -73 -220 -127 -347 -286 -681 -268 -560 -308 -659 -356 -875 -38 -169
-47 -280 -47 -562 0 -377 19 -582 69 -746 35 -115 12 -135 -160 -133 -135 2
-185 -8 -229 -46 -48 -40 -70 -92 -70 -165 0 -74 22 -128 75 -186 52 -58 84
-66 234 -58 103 6 180 2 426 -23 577 -58 672 -64 920 -58 220 6 536 30 805 61
218 25 294 28 375 15 95 -15 163 -2 224 42 143 106 127 308 -31 394 -50 27
-58 29 -171 27 -147 -3 -177 9 -177 72 0 68 21 104 134 219 120 123 178 209
239 357 97 237 150 531 150 835 -1 284 -35 441 -129 589 -85 134 -97 178 -92
339 4 110 8 142 29 192 29 74 261 422 409 615 116 151 164 228 204 327 97 238
67 661 -69 959 -88 194 -266 396 -479 547 -117 82 -146 114 -146 163 0 16 -5
35 -12 42 -16 16 -59 15 -82 -3 -25 -19 -65 -19 -163 1 -156 31 -282 44 -473
50 -191 5 -196 5 -234 -18z m1054 -569 c92 -56 228 -238 283 -379 57 -146 91
-341 84 -484 -8 -177 -47 -262 -224 -488 -136 -173 -357 -502 -401 -598 -73
-160 -98 -352 -68 -532 18 -110 41 -167 120 -300 83 -140 91 -181 90 -483 -1
-267 -11 -353 -54 -454 -30 -69 -47 -82 -70 -52 -13 19 -19 53 -24 155 -9 171
-21 243 -62 387 -63 222 -126 373 -338 817 -265 554 -376 856 -376 1019 1 116
23 136 167 153 293 33 449 91 605 225 l74 63 159 -59 c87 -33 168 -59 178 -57
28 4 45 34 31 55 -6 10 -78 45 -160 77 -82 33 -150 60 -152 62 -7 5 49 104 59
104 5 0 55 -9 110 -21 121 -25 153 -23 157 9 2 13 -2 29 -8 37 -6 8 -63 26
-127 41 -112 26 -114 27 -108 51 3 14 9 38 12 54 l6 29 126 0 c130 0 151 6
151 41 0 31 -28 40 -137 46 -59 3 -114 9 -122 13 -13 7 -30 77 -77 314 -30
153 5 210 96 155z"/>
</g>
</svg>
