<?xml version="1.0" standalone="no"?>
<!DOCTYPE svg PUBLIC "-//W3C//DTD SVG 20010904//EN"
 "http://www.w3.org/TR/2001/REC-SVG-20010904/DTD/svg10.dtd">
<svg version="1.0" xmlns="http://www.w3.org/2000/svg"
 width="474.000000pt" height="448.000000pt" viewBox="0 0 474.000000 448.000000"
 preserveAspectRatio="xMidYMid meet">

<g transform="translate(0.000000,448.000000) scale(0.100000,-0.100000)"
fill="#000000" stroke="none">
<path d="M2139 4273 c-124 -109 -286 -252 -360 -318 -75 -66 -203 -179 -285
-251 -82 -72 -296 -261 -475 -420 -179 -159 -454 -402 -610 -540 -156 -138
-310 -276 -342 -305 l-59 -54 117 -127 c63 -71 120 -128 125 -128 15 0 463
389 1200 1045 124 110 318 281 430 380 112 99 251 223 309 275 142 128 170
150 186 150 8 0 63 -44 122 -98 59 -54 227 -204 373 -333 146 -128 378 -333
515 -455 138 -121 293 -258 346 -305 53 -46 203 -179 335 -295 269 -237 420
-364 432 -364 4 0 35 33 69 73 34 39 87 99 118 131 l55 59 -22 16 c-13 8 -63
52 -112 96 -105 93 -294 261 -566 500 -107 94 -261 230 -344 304 -83 73 -279
247 -436 385 -156 138 -352 312 -435 386 -355 317 -440 390 -454 390 -4 0
-108 -89 -232 -197z"/>
<path d="M750 4173 c-14 -3 -28 -10 -32 -17 -11 -16 -10 -846 0 -846 5 0 24
15 43 33 19 17 68 61 109 97 116 100 404 362 417 380 9 10 12 66 13 181 0 143
-2 168 -16 173 -18 7 -496 6 -534 -1z"/>
<path d="M2184 3498 c-220 -197 -626 -557 -874 -775 -537 -471 -584 -516 -590
-553 -3 -19 -3 -504 0 -1077 l5 -1043 27 -25 27 -25 531 0 530 0 0 470 c0 522
1 528 60 549 45 15 919 16 953 0 52 -23 52 -26 52 -540 l0 -479 529 0 529 0
27 29 c25 26 29 38 35 122 3 52 5 534 3 1072 l-3 978 -70 63 c-38 35 -187 166
-331 292 -559 492 -765 673 -906 802 -233 211 -330 292 -347 292 -9 0 -93 -69
-187 -152z"/>
</g>
</svg>
