<?xml version="1.0" standalone="no"?>
<!DOCTYPE svg PUBLIC "-//W3C//DTD SVG 20010904//EN"
 "http://www.w3.org/TR/2001/REC-SVG-20010904/DTD/svg10.dtd">
<svg version="1.0" xmlns="http://www.w3.org/2000/svg"
 width="419.000000pt" height="234.000000pt" viewBox="0 0 419.000000 234.000000"
 preserveAspectRatio="xMidYMid meet">

<g transform="translate(0.000000,234.000000) scale(0.100000,-0.100000)"
fill="#000000" stroke="none">
<path d="M2553 1798 c-286 -286 -293 -293 -293 -333 0 -35 -7 -46 -62 -102
l-63 -63 95 -95 c52 -52 99 -95 105 -95 6 0 37 27 69 59 54 55 61 59 93 54 34
-6 39 -1 334 293 200 200 299 305 299 319 0 31 -229 255 -261 255 -17 0 -97
-74 -316 -292z"/>
<path d="M1695 2033 c-65 -19 -90 -39 -259 -201 -59 -56 -76 -79 -76 -100 0
-20 -13 -40 -43 -70 -49 -48 -59 -51 -79 -21 -14 21 -16 19 -76 -56 -34 -43
-62 -80 -62 -84 0 -4 33 -39 73 -79 l72 -72 70 51 c93 67 92 65 70 89 -18 20
-18 21 11 51 69 73 178 95 259 52 22 -12 110 -92 195 -177 85 -86 159 -156
164 -156 13 0 106 93 106 105 0 6 -81 91 -180 190 -186 186 -201 208 -186 269
18 71 130 125 273 134 71 3 96 9 108 22 9 10 12 20 8 23 -5 3 -55 15 -110 26
-120 25 -265 27 -338 4z"/>
<path d="M2080 1205 c-32 -33 -38 -35 -100 -35 l-65 0 -308 -308 -307 -307
145 -145 145 -145 310 310 310 310 0 65 c0 60 2 67 35 100 l34 35 -75 78 c-41
42 -78 77 -83 77 -4 0 -22 -16 -41 -35z m107 -145 c-25 -20 -27 -28 -27 -89
l0 -68 -262 -259 c-145 -143 -267 -260 -272 -262 -6 -1 -9 21 -7 48 l2 49 240
238 c131 130 239 242 239 249 0 15 -88 94 -104 94 -6 0 -119 -108 -251 -240
l-240 -240 -47 0 c-27 0 -48 3 -48 7 0 5 120 128 267 275 l268 268 71 0 c59 0
74 4 89 20 19 21 19 21 64 -24 l45 -45 -27 -21z m-650 -552 c29 -29 33 -38 33
-87 l0 -56 -80 80 c-44 44 -80 83 -80 87 0 5 21 8 47 8 39 0 52 -5 80 -32z"/>
<path d="M2353 1028 l-92 -93 290 -320 c160 -176 298 -326 306 -333 9 -6 32
-12 51 -12 30 0 46 12 119 82 100 98 111 118 86 164 -23 41 -630 604 -652 604
-9 0 -58 -42 -108 -92z"/>
</g>
</svg>
